<?xml version="1.0" encoding="utf-8"?>
<!-- Generator: Adobe Illustrator 22.1.0, SVG Export Plug-In . SVG Version: 6.00 Build 0)  -->
<svg version="1.1" id="Layer_1" xmlns="http://www.w3.org/2000/svg" xmlns:xlink="http://www.w3.org/1999/xlink" x="0px" y="0px"
	 viewBox="0 0 575.5 240.7" style="enable-background:new 0 0 575.5 240.7;" xml:space="preserve">
<style type="text/css">
	.st0{fill:#0079C1;}
</style>
<path class="st0" d="M570.2,143.5v7.6h-24.3c-0.4-4.4-0.6-8.7-1.3-12.8c-6.9-40-50.9-61.4-86.3-42.3c-17.6,9.5-29.2,27.4-31.4,47.3
	c-0.8,7.5-0.1,15,2.3,22.2c0.4,1.3,1,1.7,2.3,1.6c2.6-0.1,5.2,0,7.8,0c1.8,0,3.7,0,5.8,0c-4.5-10.5-5.4-20.9-2.2-31.5
	c3.2-10.6,9.5-18.9,18.8-25c15.5-10.1,36.1-9.5,51.1,1.5c15.1,11.1,19.5,28.9,18.1,39c-8.7,0-17.3,0-25.9,0
	c-0.3-2.4-0.4-4.7-0.9-6.9c-2.2-9.5-11.6-15.7-21-14c-9.9,1.8-16.7,10.9-15.5,20.6c1.1,9,9,16.1,18.3,16.3c2,0,4.1,0,6.1,0v26.4
	h-45.1c13.5,10.9,28.4,15.7,45.1,14.4v24.7H8.8V208c183.2,0,234.4,0,417.9,0c-0.8-0.8-1.3-1.3-1.7-1.8c-2.9-3.5-5.9-7-8.6-10.7
	c-1.2-1.7-2.3-2.3-4.3-2.3c-177.8,0.1-223.7,0-401.4,0c-0.8,0-1.6,0-2.3,0l0-26.4c0.6,0,1.2,0.1,1.8,0.1c174.6,0,217.3,0,391.9,0
	c0.6,0,1.3,0,2.1,0c-0.1-0.9-0.2-1.5-0.3-2c-2.2-10.2-2.3-20.5-0.6-30.8c5.8-34.3,33.3-62.2,67.6-68.3c3.5-0.6,7-1,10.5-1.5
	c3.3,0,6.5,0,9.8,0c0.5,0,1,0.1,1.6,0.1c12.7,0.9,24.6,4.6,35.5,11.1c22.2,13.2,35.7,32.5,40.6,57.9
	C569.4,136.8,569.7,140.1,570.2,143.5z"/>
<path class="st0" d="M9.7,113.2c0.3-2.1,0.6-4.1,1-6.2c2.6-11.8,10.1-18.7,21.5-21.6c8.1-2.1,16.3-1.9,24.5-0.6
	c0.2,0,0.4,0.1,0.7,0.2c0,5.4,0,10.8,0,16.2c-1.9-0.2-3.7-0.5-5.6-0.6c-4.1-0.3-8.1-0.1-12,1.2c-5.5,1.9-9,5.6-9.8,11.4
	c-0.8,5.7-0.1,11,3.9,15.4c3,3.3,7,5,11.3,5.6c3.2,0.5,6.5,0.5,9.8,0.7c0.9,0,1.7,0,2.7,0c0,5.4,0,10.9,0,16.5
	c-0.7,0.1-1.5,0.2-2.2,0.2c-9.7,0.5-19.1-0.5-27.9-4.7c-10-4.8-15.6-12.8-17.3-23.6c-0.2-1.3-0.4-2.5-0.6-3.8
	C9.7,117.5,9.7,115.4,9.7,113.2z"/>
<path class="st0" d="M137.8,85.1c6.9,0,13.6,0,20.3,0c0.4,0,1,0.6,1.2,1c6.7,10.6,13.3,21.2,20,31.8c0.3,0.5,0.6,1,1.2,1.4
	c0-11.3,0-22.7,0-34.1c5.8,0,11.4,0,17.1,0c0,22.5,0,45,0,67.6c-0.4,0-0.9,0-1.3,0c-4.6,0-9.2,0-13.8,0c-0.9,0-1.5-0.3-2-1.1
	c-8.3-13.4-16.7-26.8-25-40.2c-0.3-0.5-0.6-0.9-1-1.7c0,14.5,0,28.6,0,42.8c-5.6,0-11.1,0-16.7,0
	C137.8,130.2,137.8,107.7,137.8,85.1z"/>
<path class="st0" d="M95.6,83.9c16.3,0,29.6,8.9,34.8,22.3c5.7,14.6,0.3,30.9-13.1,40c-15.2,10.3-36.6,7.3-48.2-6.7
	c-14.2-17.1-8.2-43,12.2-52.2C86.2,85,91.4,83.8,95.6,83.9z M80.5,118.1c0.1,0.9,0.1,1.9,0.3,2.8c2.1,10.2,13.3,15.7,22.9,11.3
	c8.6-3.9,12.1-13.5,7.6-21.4c-3.4-6-8.8-8.6-15.6-8.3C87.4,102.9,80.6,109.8,80.5,118.1z"/>
<path class="st0" d="M245.5,122.3c5.7,10.2,11.4,20.2,17.1,30.5c-3,0-5.8,0-8.6,0c-2.8,0-5.6,0-8.3,0c-1.1,0-1.7-0.3-2.3-1.2
	c-6.1-9.5-12.2-19-18.2-28.5c-0.3-0.4-0.5-0.8-1-1.6c0,10.6,0,20.9,0,31.2c-5.5,0-10.8,0-16.2,0c0-0.5-0.1-1.1-0.1-1.6
	c0-21.2,0-42.4,0-63.6c0-1.4,0.4-1.7,1.8-1.7c7.8,0.1,15.6,0,23.3,0.2c6,0.2,11.9,1.3,17.3,4.3c5.5,3.1,8.2,7.8,7.8,14.2
	c-0.2,3.3-0.6,6.5-2,9.5c-2,4.3-5.1,7.1-9.8,8.1C246,122.1,245.8,122.1,245.5,122.3z M224.1,115.9c3.5,0,6.9,0.1,10.2-0.1
	c1.4-0.1,2.9-0.6,4.3-1.3c3.7-1.8,5.5-5.6,4.9-10.2c-0.5-3.7-2.7-6.1-7-6.6c-3.9-0.4-8.1-0.3-12.1-0.3c-0.1,0-0.1,0.1-0.3,0.2
	C224.1,103.7,224.1,109.7,224.1,115.9z"/>
<path class="st0" d="M279.7,152.7c-4.8,0-9.6,0-14.5,0c5.7-22.6,11.3-45.1,17-67.6c8.1,0,16.1,0,24.2,0c7,22.5,14,45,21,67.7
	c-1.7,0-3.3,0-4.9,0c-3.5,0-7.1-0.1-10.6,0c-1.2,0-1.6-0.4-1.8-1.4c-1.4-5.1-3-10.1-4.4-15.2c-0.3-1.2-0.8-1.4-2-1.4
	c-6,0.1-11.9,0.1-17.9,0c-1.1,0-1.6,0.3-1.8,1.4C282.5,141.7,281.1,147.2,279.7,152.7z M287.6,120.7c4.6,0,9.1,0,13.7,0
	c-2.5-8.4-4.9-16.7-7.3-25c-0.1,0-0.2,0-0.3,0C291.7,104,289.6,112.3,287.6,120.7z"/>
<path class="st0" d="M395.5,152.7c-12.8,0-25.5,0-38.3,0c0-22.5,0-45,0-67.6c5.8,0,11.6,0,17.5,0c0,17,0,34.1,0,51.2
	c7,0,13.8,0,20.7,0C395.5,141.8,395.5,147.2,395.5,152.7z"/>
<path class="st0" d="M347.8,85.2c0,22.5,0,45,0,67.5c-6,0-11.9,0-17.9,0c0-22.5,0-44.9,0-67.5C335.8,85.2,341.8,85.2,347.8,85.2z"/>
</svg>
